<svg width="1200" height="720" viewBox="0 0 1200 720" fill="none" xmlns="http://www.w3.org/2000/svg">
  <defs>
    <linearGradient id="bg" x1="140" y1="60" x2="1080" y2="660" gradientUnits="userSpaceOnUse">
      <stop stop-color="#0A2A62"/>
      <stop offset="0.55" stop-color="#123E8E"/>
      <stop offset="1" stop-color="#0F7567"/>
    </linearGradient>
    <linearGradient id="orb" x1="0" y1="0" x2="1" y2="1">
      <stop stop-color="#7FDBFF"/>
      <stop offset="1" stop-color="#4F8BFF"/>
    </linearGradient>
  </defs>
  <rect width="1200" height="720" rx="36" fill="url(#bg)"/>
  <circle cx="210" cy="150" r="130" fill="url(#orb)" fill-opacity="0.38"/>
  <circle cx="980" cy="560" r="190" fill="#6FF7D8" fill-opacity="0.2"/>
  <circle cx="1030" cy="180" r="90" fill="#D6E4FF" fill-opacity="0.24"/>
  <rect x="130" y="172" width="940" height="390" rx="24" fill="#EDF4FF" fill-opacity="0.16" stroke="#D8E7FF" stroke-opacity="0.3"/>
  <rect x="170" y="214" width="360" height="300" rx="20" fill="#FFFFFF" fill-opacity="0.92"/>
  <rect x="560" y="214" width="470" height="132" rx="20" fill="#FFFFFF" fill-opacity="0.9"/>
  <rect x="560" y="382" width="470" height="132" rx="20" fill="#FFFFFF" fill-opacity="0.82"/>
  <rect x="210" y="270" width="210" height="16" rx="8" fill="#3066D8"/>
  <rect x="210" y="304" width="260" height="12" rx="6" fill="#8EA9E8"/>
  <rect x="210" y="330" width="230" height="12" rx="6" fill="#B5C6EE"/>
  <circle cx="275" cy="430" r="52" fill="#E5EEFF"/>
  <path d="M249 431H302" stroke="#345FB7" stroke-width="10" stroke-linecap="round"/>
  <path d="M276 404V458" stroke="#345FB7" stroke-width="10" stroke-linecap="round"/>
  <rect x="600" y="262" width="220" height="14" rx="7" fill="#234B93"/>
  <rect x="600" y="292" width="300" height="10" rx="5" fill="#9DB8E8"/>
  <rect x="600" y="428" width="240" height="14" rx="7" fill="#0D6F62"/>
  <rect x="600" y="458" width="310" height="10" rx="5" fill="#8FD7CC"/>
</svg>
